<svg width="18" height="18" viewBox="0 0 18 18" fill="none" xmlns="http://www.w3.org/2000/svg">
  <path
    fillRule="evenodd"
    clipRule="evenodd"
    d="M4.4234 0.899903C3.74955 0.899882 3.18763 0.899864 2.74155 0.959838C2.2707 1.02314 1.8456 1.16239 1.504 1.504C1.16239 1.8456 1.02314 2.2707 0.959838 2.74155C0.899864 3.18763 0.899882 3.74953 0.899903 4.42338V4.5014C0.899882 5.17525 0.899864 5.73718 0.959838 6.18326C1.02314 6.65411 1.16239 7.07921 1.504 7.42081C1.8456 7.76241 2.2707 7.90167 2.74155 7.96497C3.18763 8.02495 3.74953 8.02493 4.42339 8.02491H4.5014C5.17525 8.02493 14.7372 8.02495 15.1833 7.96497C15.6541 7.90167 16.0792 7.76241 16.4208 7.42081C16.7624 7.07921 16.9017 6.65411 16.965 6.18326C17.0249 5.73718 17.0249 5.17527 17.0249 4.50142V4.42341C17.0249 3.74956 17.0249 3.18763 16.965 2.74155C16.9017 2.2707 16.7624 1.8456 16.4208 1.504C16.0792 1.16239 15.6541 1.02314 15.1833 0.959838C14.7372 0.899864 5.17528 0.899882 4.50142 0.899903H4.4234ZM2.29949 2.29949C2.39723 2.20175 2.54535 2.12134 2.89145 2.07481C3.25373 2.0261 3.7394 2.0249 4.4624 2.0249C5.18541 2.0249 14.6711 2.0261 15.0334 2.07481C15.3795 2.12134 15.5276 2.20175 15.6253 2.29949C15.7231 2.39723 15.8035 2.54535 15.85 2.89145C15.8987 3.25373 15.8999 3.7394 15.8999 4.4624C15.8999 5.18541 15.8987 5.67108 15.85 6.03336C15.8035 6.37946 15.7231 6.52758 15.6253 6.62532C15.5276 6.72305 15.3795 6.80347 15.0334 6.85C14.6711 6.89871 5.18541 6.8999 4.4624 6.8999C3.7394 6.8999 3.25373 6.89871 2.89145 6.85C2.54535 6.80347 2.39723 6.72305 2.29949 6.62532C2.20175 6.52758 2.12134 6.37946 2.07481 6.03336C2.0261 5.67108 2.0249 5.18541 2.0249 4.4624C2.0249 3.7394 2.0261 3.25373 2.07481 2.89145C2.12134 2.54535 2.20175 2.39723 2.29949 2.29949Z"
    fill="currentColor"
  />
  <path
    fillRule="evenodd"
    clipRule="evenodd"
    d="M4.4234 9.1499H4.5014C5.17526 9.14988 14.7372 9.14986 15.1833 9.20984C15.6541 9.27314 16.0792 9.41239 16.4208 9.754C16.7624 10.0956 16.9017 10.5207 16.965 10.9915C17.0249 11.4376 17.0249 11.9995 17.0249 12.6734V12.7514C17.0249 13.4253 17.0249 13.9872 16.965 14.4333C16.9017 14.9041 16.7624 15.3292 16.4208 15.6708C16.0792 16.0124 15.6541 16.1517 15.1833 16.215C14.7372 16.2749 5.17529 16.2749 4.50145 16.2749H4.42341C3.74957 16.2749 3.18762 16.2749 2.74155 16.215C2.2707 16.1517 1.8456 16.0124 1.504 15.6708C1.16239 15.3292 1.02314 14.9041 0.959838 14.4333C0.899864 13.9872 0.899882 13.4253 0.899903 12.7514V12.6734C0.899882 11.9996 0.899864 11.4376 0.959838 10.9915C1.02314 10.5207 1.16239 10.0956 1.504 9.754C1.8456 9.41239 2.2707 9.27314 2.74155 9.20984C3.18763 9.14986 3.74955 9.14988 4.4234 9.1499ZM2.89145 10.3248C2.54535 10.3713 2.39723 10.4518 2.29949 10.5495C2.20175 10.6472 2.12134 10.7954 2.07481 11.1414C2.0261 11.5037 2.0249 11.9894 2.0249 12.7124C2.0249 13.4354 2.0261 13.9211 2.07481 14.2834C2.12134 14.6295 2.20175 14.7776 2.29949 14.8753C2.39723 14.9731 2.54535 15.0535 2.89145 15.1C3.25373 15.1487 3.7394 15.1499 4.4624 15.1499C5.18541 15.1499 14.6711 15.1487 15.0334 15.1C15.3795 15.0535 15.5276 14.9731 15.6253 14.8753C15.7231 14.7776 15.8035 14.6295 15.85 14.2834C15.8987 13.9211 15.8999 13.4354 15.8999 12.7124C15.8999 11.9894 15.8987 11.5037 15.85 11.1414C15.8035 10.7954 15.7231 10.6472 15.6253 10.5495C15.5276 10.4518 15.3795 10.3713 15.0334 10.3248C14.6711 10.2761 5.18541 10.2749 4.4624 10.2749C3.7394 10.2749 3.25373 10.2761 2.89145 10.3248Z"
    fill="currentColor"
  />
</svg>