<svg width="16" height="16" viewBox="0 0 16 16" fill="none" xmlns="http://www.w3.org/2000/svg">
    <path
        fill-rule="evenodd"
        clip-rule="evenodd"
        d="M8.08889 0C8.6289 2.36047e-08 9.06667 0.437766 9.06667 0.977778L9.06667 15.0222C9.06667 15.5622 8.6289 16 8.08889 16C7.54888 16 7.11111 15.5622 7.11111 15.0222L7.11111 0.977778C7.11111 0.437766 7.54888 -2.36047e-08 8.08889 0Z"
        fill="currentColor"
    />
    <path
        fill-rule="evenodd"
        clip-rule="evenodd"
        d="M0 7.91111C4.72093e-08 7.3711 0.437766 6.93333 0.977778 6.93333L15.0222 6.93333C15.5622 6.93333 16 7.3711 16 7.91111C16 8.45112 15.5622 8.88889 15.0222 8.88889L0.977778 8.88889C0.437766 8.88889 -4.72093e-08 8.45112 0 7.91111Z"
        fill="currentColor"
    />
</svg>